<svg width="49" height="48" viewBox="0 0 49 48" fill="none" xmlns="http://www.w3.org/2000/svg">
<g clip-path="url(#clip0_223_117)">
<path d="M0.5 36V33.35C0.5 32.05 1.2 31 2.6 30.2C4 29.4 5.8 29 8 29C8.43333 29 8.83333 29.0083 9.2 29.025C9.56667 29.0417 9.93333 29.0833 10.3 29.15C10.0333 29.7167 9.83333 30.2917 9.7 30.875C9.56667 31.4583 9.5 32.0833 9.5 32.75V36H0.5ZM12.5 36V32.75C12.5 30.5833 13.6083 28.8333 15.825 27.5C18.0417 26.1667 20.9333 25.5 24.5 25.5C28.1 25.5 31 26.1667 33.2 27.5C35.4 28.8333 36.5 30.5833 36.5 32.75V36H12.5ZM39.5 36V32.75C39.5 32.0833 39.4417 31.4583 39.325 30.875C39.2083 30.2917 39.0167 29.7167 38.75 29.15C39.1167 29.0833 39.4833 29.0417 39.85 29.025C40.2167 29.0083 40.6 29 41 29C43.2667 29 45.0833 29.4 46.45 30.2C47.8167 31 48.5 32.05 48.5 33.35V36H39.5ZM24.5 28.5C21.8333 28.5 19.6667 28.9 18 29.7C16.3333 30.5 15.5 31.5167 15.5 32.75V33H33.5V32.7C33.5 31.5 32.675 30.5 31.025 29.7C29.375 28.9 27.2 28.5 24.5 28.5ZM8 27.5C7.03333 27.5 6.20833 27.1583 5.525 26.475C4.84167 25.7917 4.5 24.9667 4.5 24C4.5 23.0333 4.84167 22.2083 5.525 21.525C6.20833 20.8417 7.03333 20.5 8 20.5C8.96667 20.5 9.79167 20.8417 10.475 21.525C11.1583 22.2083 11.5 23.0333 11.5 24C11.5 24.9667 11.1583 25.7917 10.475 26.475C9.79167 27.1583 8.96667 27.5 8 27.5ZM41 27.5C40.0333 27.5 39.2083 27.1583 38.525 26.475C37.8417 25.7917 37.5 24.9667 37.5 24C37.5 23.0333 37.8417 22.2083 38.525 21.525C39.2083 20.8417 40.0333 20.5 41 20.5C41.9667 20.5 42.7917 20.8417 43.475 21.525C44.1583 22.2083 44.5 23.0333 44.5 24C44.5 24.9667 44.1583 25.7917 43.475 26.475C42.7917 27.1583 41.9667 27.5 41 27.5ZM24.5 24C22.8333 24 21.4167 23.4167 20.25 22.25C19.0833 21.0833 18.5 19.6667 18.5 18C18.5 16.3 19.0833 14.875 20.25 13.725C21.4167 12.575 22.8333 12 24.5 12C26.2 12 27.625 12.575 28.775 13.725C29.925 14.875 30.5 16.3 30.5 18C30.5 19.6667 29.925 21.0833 28.775 22.25C27.625 23.4167 26.2 24 24.5 24ZM24.5 15C23.6667 15 22.9583 15.2833 22.375 15.85C21.7917 16.4167 21.5 17.1333 21.5 18C21.5 18.8333 21.7917 19.5417 22.375 20.125C22.9583 20.7083 23.6667 21 24.5 21C25.3667 21 26.0833 20.7083 26.65 20.125C27.2167 19.5417 27.5 18.8333 27.5 18C27.5 17.1333 27.2167 16.4167 26.65 15.85C26.0833 15.2833 25.3667 15 24.5 15Z" fill="white"/>
</g>
<defs>
<clipPath id="clip0_223_117">
<rect width="48" height="48" fill="white" transform="translate(0.5)"/>
</clipPath>
</defs>
</svg>
