<svg xmlns="http://www.w3.org/2000/svg" xmlns:xlink="http://www.w3.org/1999/xlink" width="1500" height="1500" viewBox="0 0 1500 1500">
  <defs>
    <clipPath id="clip-undraw_completed_tasks_vs6q">
      <rect width="1500" height="1500"/>
    </clipPath>
  </defs>
  <g id="undraw_completed_tasks_vs6q" clip-path="url(#clip-undraw_completed_tasks_vs6q)">
    <rect width="1500" height="1500" fill="#fff"/>
    <g id="undraw_completed_tasks_vs6q-2" data-name="undraw_completed_tasks_vs6q">
      <path id="Path_1685" data-name="Path 1685" d="M944.981,830.594h-488.1a62.5,62.5,0,0,1-62.431-62.431V194.931A62.5,62.5,0,0,1,456.883,132.5h454.1l96.434,76.864v558.8a62.5,62.5,0,0,1-62.431,62.431Z" transform="translate(-33.048 16.5)" fill="#e8cfbe"/>
      <path id="Path_1686" data-name="Path 1686" d="M448.41,142a44.509,44.509,0,0,0-44.459,44.459V759.69a44.509,44.509,0,0,0,44.459,44.459h488.1a44.509,44.509,0,0,0,44.459-44.459V209.55L896.219,142Z" transform="translate(-24.575 24.973)" fill="#fff"/>
      <path id="Path_1687" data-name="Path 1687" d="M744.932,239.906H522.707a10.4,10.4,0,0,1,0-20.793H744.932a10.4,10.4,0,1,1,0,20.793Z" transform="translate(72.065 93.747)" fill="#ccc"/>
      <path id="Path_1688" data-name="Path 1688" d="M787.817,258.453H522.707a10.4,10.4,0,0,1,0-20.793h265.11a10.4,10.4,0,0,1,0,20.793Z" transform="translate(72.065 110.288)" fill="#ccc"/>
      <path id="Path_1689" data-name="Path 1689" d="M744.932,323.024H522.707a10.4,10.4,0,0,1,0-20.793H744.932a10.4,10.4,0,1,1,0,20.793Z" transform="translate(72.065 167.876)" fill="#ccc"/>
      <path id="Path_1690" data-name="Path 1690" d="M787.817,341.571H522.707a10.4,10.4,0,0,1,0-20.793h265.11a10.4,10.4,0,0,1,0,20.793Z" transform="translate(72.065 184.417)" fill="#ccc"/>
      <path id="Path_1691" data-name="Path 1691" d="M744.932,406.142H522.707a10.4,10.4,0,0,1,0-20.793H744.932a10.4,10.4,0,0,1,0,20.793Z" transform="translate(72.065 242.005)" fill="#ccc"/>
      <path id="Path_1692" data-name="Path 1692" d="M787.817,424.689H522.707a10.4,10.4,0,0,1,0-20.793h265.11a10.4,10.4,0,0,1,0,20.793Z" transform="translate(72.065 258.546)" fill="#ccc"/>
      <circle id="Ellipse_44" data-name="Ellipse 44" cx="36.746" cy="36.746" r="36.746" transform="translate(465.488 304.055)" fill="#ff8e28"/>
      <path id="Path_395" data-name="Path 395" d="M472.847,254.466a3.811,3.811,0,0,1-2.293-.762l-.041-.031-8.636-6.606a3.838,3.838,0,0,1,4.67-6.091l5.594,4.289,13.218-17.244a3.836,3.836,0,0,1,5.378-.71h0l-.082.114.084-.114a3.841,3.841,0,0,1,.71,5.379L475.9,252.965a3.838,3.838,0,0,1-3.052,1.5Z" transform="translate(25.746 100.352)" fill="#fff"/>
      <circle id="Ellipse_44-2" data-name="Ellipse 44" cx="36.746" cy="36.746" r="36.746" transform="translate(469.271 461.302)" fill="#ccc"/>
      <circle id="Ellipse_44-3" data-name="Ellipse 44" cx="36.746" cy="36.746" r="36.746" transform="translate(465.488 618.548)" fill="#ccc"/>
      <path id="Path_1693" data-name="Path 1693" d="M762.872,211.153h-75.54a20.793,20.793,0,0,1-20.793-20.793V134.567a1.3,1.3,0,0,1,2.107-1.019l95.033,75.286a1.3,1.3,0,0,1-.807,2.318Z" transform="translate(209.615 17.185)" fill="#e8cfbe"/>
      <path id="Path_1694" data-name="Path 1694" d="M624.954,699.1,336.17,759.97a32.2,32.2,0,0,1-38.1-24.837l-49.555-235.1a32.2,32.2,0,0,1,24.837-38.1L562.133,401.06a32.2,32.2,0,0,1,38.1,24.837L649.791,661a32.2,32.2,0,0,1-24.837,38.1Z" transform="translate(-163.821 255.399)" fill="#fff"/>
      <path id="Path_1695" data-name="Path 1695" d="M624.954,699.1,336.17,759.97a32.2,32.2,0,0,1-38.1-24.837l-49.555-235.1a32.2,32.2,0,0,1,24.837-38.1L562.133,401.06a32.2,32.2,0,0,1,38.1,24.837L649.791,661a32.2,32.2,0,0,1-24.837,38.1ZM274.129,465.633a28.41,28.41,0,0,0-21.915,33.621l49.555,235.1a28.41,28.41,0,0,0,33.621,21.915L624.174,695.4a28.41,28.41,0,0,0,21.915-33.62l-49.555-235.1a28.41,28.41,0,0,0-33.621-21.915Z" transform="translate(-163.821 255.399)" fill="#f8eee7"/>
      <path id="Path_411" data-name="Path 411" d="M476.143,446.533,330.4,477.253a5.166,5.166,0,0,1-6.109-3.525,4.977,4.977,0,0,1,3.781-6.156L476.429,436.3c5.793,3.265,3.962,9.337-.288,10.232Z" transform="translate(-95.774 287.446)" fill="#e8cfbe"/>
      <path id="Path_412" data-name="Path 412" d="M478.991,460.046,333.246,490.766a5.166,5.166,0,0,1-6.109-3.525,4.977,4.977,0,0,1,3.781-6.156l148.36-31.272c5.793,3.264,3.962,9.337-.288,10.232Z" transform="translate(-93.233 299.498)" fill="#e8cfbe"/>
      <path id="Path_413" data-name="Path 413" d="M344.622,512.631l-44.48,9.376a5.6,5.6,0,0,1-6.632-4.323l-11.064-52.49a5.6,5.6,0,0,1,4.323-6.632l44.48-9.376a5.605,5.605,0,0,1,6.632,4.323L348.945,506a5.6,5.6,0,0,1-4.323,6.632Z" transform="translate(-133.048 298.83)" fill="#e8cfbe"/>
      <path id="Path_414" data-name="Path 414" d="M520.752,487.761,298.317,534.646a5.166,5.166,0,0,1-6.109-3.525,4.977,4.977,0,0,1,3.781-6.156l225.05-47.437c5.793,3.265,3.962,9.337-.288,10.232Z" transform="translate(-124.385 324.216)" fill="#e8cfbe"/>
      <path id="Path_415" data-name="Path 415" d="M523.6,501.278,301.167,548.163a5.167,5.167,0,0,1-6.109-3.525,4.977,4.977,0,0,1,3.781-6.156l225.05-47.437C529.682,494.31,527.851,500.382,523.6,501.278Z" transform="translate(-121.844 336.271)" fill="#ccc"/>
      <path id="Path_416" data-name="Path 416" d="M526.448,514.786,304.014,561.671a5.166,5.166,0,0,1-6.109-3.525,4.977,4.977,0,0,1,3.781-6.156l225.05-47.437c5.793,3.265,3.962,9.337-.288,10.232Z" transform="translate(-119.305 348.318)" fill="#e8cfbe"/>
      <path id="Path_417" data-name="Path 417" d="M529.3,528.3,306.863,575.187a5.166,5.166,0,0,1-6.109-3.525,4.977,4.977,0,0,1,3.781-6.156l225.05-47.437c5.793,3.265,3.962,9.337-.288,10.232Z" transform="translate(-116.764 360.372)" fill="#e8cfbe"/>
      <path id="Path_418" data-name="Path 418" d="M532.144,541.811,309.71,588.7a5.167,5.167,0,0,1-6.109-3.525,4.977,4.977,0,0,1,3.781-6.156l225.05-47.437c5.793,3.265,3.962,9.337-.288,10.232Z" transform="translate(-114.225 372.421)" fill="#e8cfbe"/>
      <path id="Path_1696" data-name="Path 1696" d="M509.217,479.909a19.919,19.919,0,0,0-1.293,2.857l-91.061,22.6-15.841-16.388L373.165,509.65l25.225,31.738a15.135,15.135,0,0,0,17.573,4.594l98.81-40.376a19.859,19.859,0,1,0-5.555-25.695Z" transform="translate(-52.032 317.279)" fill="#c95636"/>
      <path id="Path_1697" data-name="Path 1697" d="M293.319,680.7a20.324,20.324,0,0,0,12.067-28.733l62.666-174.178-43.52-7.713L276.618,643.718a20.434,20.434,0,0,0,16.7,36.987Z" transform="translate(-146.959 317.573)" fill="#c95636"/>
      <path id="Path_1698" data-name="Path 1698" d="M339.092,530.863l-42.969-16.491a9.113,9.113,0,0,1-4.672-12.984l22.542-39.967a25.308,25.308,0,1,1,47.2,18.275l-9.943,44.643a9.113,9.113,0,0,1-12.159,6.524Z" transform="translate(-125.958 295.423)" fill="#ff8e28"/>
      <path id="Path_1699" data-name="Path 1699" d="M119.527,663.941l23.194,0,11.033-89.462-34.231,0Z" transform="translate(190.594 661.35)" fill="#c95636"/>
      <path id="Path_1700" data-name="Path 1700" d="M364.216,750.264l45.677,0h0A29.108,29.108,0,0,1,439,779.372v.945l-74.786,0Z" transform="translate(-60.013 567.454)" fill="#2f2e41"/>
      <path id="Path_1701" data-name="Path 1701" d="M50.527,663.941l23.194,0,11.033-89.462-34.231,0Z" transform="translate(129.056 661.35)" fill="#c95636"/>
      <path id="Path_1702" data-name="Path 1702" d="M295.216,750.264l45.677,0h0A29.108,29.108,0,0,1,370,779.372v.945l-74.786,0Z" transform="translate(-121.551 567.454)" fill="#2f2e41"/>
      <path id="Path_1703" data-name="Path 1703" d="M329.046,882.4H299.695a8.514,8.514,0,0,1-8.5-8.918L305.133,573.94l.879-.024,141.736-3.7,27.735,299.713a8.514,8.514,0,0,1-7.8,9.291l-32.968,2.637a8.518,8.518,0,0,1-9.019-6.776L383.53,661.729a2.75,2.75,0,0,0-2.779-2.269h-.012a2.752,2.752,0,0,0-2.774,2.291L337.4,875.53A8.531,8.531,0,0,1,329.046,882.4Z" transform="translate(-125.149 406.884)" fill="#3c7745"/>
      <circle id="Ellipse_337" data-name="Ellipse 337" cx="46.466" cy="46.466" r="46.466" transform="translate(211.197 620.74)" fill="#c95636"/>
      <path id="Path_1704" data-name="Path 1704" d="M362.767,726.262c-22.147,0-44.894-5.822-63.752-23.033a8.611,8.611,0,0,1-2.78-7.283c2.018-18.135,11.809-111.773,6.3-174.322a75.711,75.711,0,0,1,24.51-63.008,74.913,74.913,0,0,1,64.251-18.6h0c.579.1,1.157.213,1.736.323,37.2,7.2,63.048,41.628,60.123,80.084-4.268,56.113-8.093,132.012-2.086,174.936a8.5,8.5,0,0,1-4.568,8.772C432.829,711.033,398.584,726.262,362.767,726.262Z" transform="translate(-120.685 289.665)" fill="#ff8e28"/>
      <path id="Path_1705" data-name="Path 1705" d="M368.429,531.872a9.1,9.1,0,0,1-3.991-6.454l-5.661-45.385A25.308,25.308,0,0,1,407.5,466.321l18.646,41.926a9.113,9.113,0,0,1-5.883,12.482l-44.34,12.339A9.1,9.1,0,0,1,368.429,531.872Z" transform="translate(-65.714 297.758)" fill="#ff8e28"/>
      <path id="Path_1706" data-name="Path 1706" d="M352.269,480.925a33.292,33.292,0,0,1-12.859-2.327c-1.8-.694-3.668-1.264-5.465-1.958-15.866-6.13-26.318-23.027-26.692-40.033s8.432-33.51,21.509-44.387,30.014-16.462,46.974-17.753c18.269-1.391,38.84,3.242,49.049,18.456,2.717,4.05,4.618,8.963,3.008,13.853a8.864,8.864,0,0,1-2.5,3.837c-4.559,4.056-9.1,1.006-13.751.737-6.388-.37-12.125,4.8-14.188,10.858s-1.154,12.726.511,18.9a47.226,47.226,0,0,1,2.38,11.495,11.556,11.556,0,0,1-4.788,10.175c-3.992,2.413-9.234,1.016-13.228-1.393s-7.445-5.758-11.759-7.531-10.11-1.379-12.621,2.551a13.962,13.962,0,0,0-1.6,4.607c-2.251,10.256-1.734,9.652-3.985,19.908Z" transform="translate(-110.827 232.091)"/>
      <path id="Path_1707" data-name="Path 1707" d="M609.831,769.284H250.379a1.892,1.892,0,0,1,0-3.784H609.831a1.892,1.892,0,1,1,0,3.784Z" transform="translate(-163.228 581.044)" fill="#918b87"/>
      <path id="Path_1708" data-name="Path 1708" d="M1125.161,688.3,867.76,832.678a32.2,32.2,0,0,1-43.784-12.316L706.435,610.811a32.2,32.2,0,0,1,12.316-43.784l257.4-144.381a32.2,32.2,0,0,1,43.784,12.316l117.541,209.551A32.2,32.2,0,0,1,1125.161,688.3Z" transform="translate(241.535 271.607)" fill="#fff"/>
      <path id="Path_1709" data-name="Path 1709" d="M1125.161,688.3,867.76,832.678a32.2,32.2,0,0,1-43.784-12.316L706.435,610.811a32.2,32.2,0,0,1,12.316-43.784l257.4-144.381a32.2,32.2,0,0,1,43.784,12.316l117.541,209.551A32.2,32.2,0,0,1,1125.161,688.3ZM720.6,570.327a28.41,28.41,0,0,0-10.867,38.633L827.276,818.511a28.41,28.41,0,0,0,38.633,10.867L1123.31,685a28.41,28.41,0,0,0,10.867-38.633L1016.636,436.813A28.41,28.41,0,0,0,978,425.946Z" transform="translate(241.535 271.607)" fill="#f8eee7"/>
      <path id="Path_411-2" data-name="Path 411" d="M915.11,467.292,785.2,540.159a5.166,5.166,0,0,1-6.883-1.538,4.977,4.977,0,0,1,1.769-7l132.237-74.174c6.5,1.385,6.571,7.726,2.783,9.851Z" transform="translate(308.617 306.301)" fill="#ccc"/>
      <path id="Path_412-2" data-name="Path 412" d="M921.866,479.336,791.959,552.2a5.166,5.166,0,0,1-6.883-1.538,4.977,4.977,0,0,1,1.769-7l132.237-74.174c6.5,1.384,6.571,7.726,2.783,9.851Z" transform="translate(314.643 317.043)" fill="#ccc"/>
      <path id="Path_413-2" data-name="Path 413" d="M812.344,555.389,772.7,577.627a5.6,5.6,0,0,1-7.621-2.144L738.833,528.7a5.6,5.6,0,0,1,2.144-7.621l39.646-22.238a5.605,5.605,0,0,1,7.621,2.144l26.243,46.786a5.6,5.6,0,0,1-2.144,7.621Z" transform="translate(273.453 342.584)" fill="#e8cfbe"/>
      <path id="Path_414-2" data-name="Path 414" d="M967.723,504.11,769.462,615.319a5.166,5.166,0,0,1-6.883-1.538,4.976,4.976,0,0,1,1.768-7L964.941,494.259C971.444,495.643,971.511,501.985,967.723,504.11Z" transform="translate(294.578 339.137)" fill="#e8cfbe"/>
      <path id="Path_415-2" data-name="Path 415" d="M974.482,516.158,776.22,627.367a5.167,5.167,0,0,1-6.884-1.538,4.977,4.977,0,0,1,1.769-7L971.7,506.307C978.2,507.692,978.269,514.033,974.482,516.158Z" transform="translate(300.605 349.882)" fill="#e8cfbe"/>
      <path id="Path_416-2" data-name="Path 416" d="M981.235,528.2,782.973,639.407a5.167,5.167,0,0,1-6.883-1.538,4.977,4.977,0,0,1,1.769-7.005L978.452,518.347c6.5,1.385,6.571,7.726,2.783,9.851Z" transform="translate(306.629 360.62)" fill="#e8cfbe"/>
      <path id="Path_417-2" data-name="Path 417" d="M987.993,540.245,789.731,651.454a5.167,5.167,0,0,1-6.884-1.538,4.977,4.977,0,0,1,1.769-7L985.21,530.394c6.5,1.385,6.571,7.726,2.783,9.851Z" transform="translate(312.655 371.364)" fill="#e8cfbe"/>
      <path id="Path_418-2" data-name="Path 418" d="M994.747,552.287,796.485,663.5a5.166,5.166,0,0,1-6.883-1.538,4.976,4.976,0,0,1,1.769-7L991.964,542.436c6.5,1.384,6.571,7.726,2.783,9.851Z" transform="translate(318.679 382.104)" fill="#e8cfbe"/>
      <path id="Path_1710" data-name="Path 1710" d="M899.757,634.272a17.885,17.885,0,0,0-11.881-24.718l-5.392-63.329-25.931,20.456,9.1,57a17.982,17.982,0,0,0,34.108,10.588Z" transform="translate(379.08 385.483)" fill="#c95636"/>
      <path id="Path_1711" data-name="Path 1711" d="M906.651,681.236,885.116,683.8a8,8,0,0,1-8.944-7.6l-3.141-72.651L832.211,492.034a22.983,22.983,0,0,1,1.213-21.884,30.029,30.029,0,0,1,3.42-4.414,22.91,22.91,0,0,1,19.982-7.1,23.887,23.887,0,0,1,17.94,12.467l26.622,55.785A158.468,158.468,0,0,1,916.7,601.759l-3,71.867a8,8,0,0,1-6.943,7.6Z" transform="translate(355.402 307.17)" fill="#ff8e28"/>
      <path id="Path_1712" data-name="Path 1712" d="M692.953,645.97l-19.967,8.763-43.3-72.842,29.467-12.935Z" transform="translate(645.581 656.426)" fill="#c95636"/>
      <path id="Path_1713" data-name="Path 1713" d="M949.737,763.41l-64.38,28.259-.357-.814A27.366,27.366,0,0,1,899.058,754.8h0l39.321-17.26Z" transform="translate(402.386 556.104)" fill="#2f2e41"/>
      <path id="Path_1714" data-name="Path 1714" d="M536.607,662.126H514.8L504.428,578.02l32.182,0Z" transform="translate(533.873 664.51)" fill="#c95636"/>
      <path id="Path_1715" data-name="Path 1715" d="M805.34,779.471l-70.309,0v-.889A27.365,27.365,0,0,1,762.4,751.214h0l42.942,0Z" transform="translate(270.699 568.303)" fill="#2f2e41"/>
      <path id="Path_1716" data-name="Path 1716" d="M1002.462,940.523,880.993,669.453a2.668,2.668,0,0,0-5.025.356L801.958,931.63a7.957,7.957,0,0,1-8.52,5.866l-40.42-4.042a8.05,8.05,0,0,1-7.186-8.612c12.857-159.907,33.124-310.827,93.839-409.624l.323-.526L931.831,532.7,1054.439,923.13a8.038,8.038,0,0,1-5.205,9.959l-36.973,11.884a7.975,7.975,0,0,1-9.8-4.45Z" transform="translate(280.312 357.36)" fill="#3c7745"/>
      <circle id="Ellipse_338" data-name="Ellipse 338" cx="43.684" cy="43.684" r="43.684" transform="translate(1121.01 646.354)" fill="#c95636"/>
      <path id="Path_1717" data-name="Path 1717" d="M794.895,581.433l-.557-.115-.131-.552c-5.886-24.85-6.026-51.97-.417-80.6a63.316,63.316,0,0,1,63.391-51.221h0a63.42,63.42,0,0,1,62.088,60.976c1.873,49.248-18.254,91.945-18.457,92.371l-.3.625Z" transform="translate(319.443 298.709)" fill="#ff8e28"/>
      <path id="Path_1718" data-name="Path 1718" d="M740.311,597.275A17.885,17.885,0,0,0,754.655,573.9l50.316-38.832L773.73,524.35l-42.991,38.519a17.982,17.982,0,0,0,9.572,34.407Z" transform="translate(256.921 365.974)" fill="#c95636"/>
      <path id="Path_1719" data-name="Path 1719" d="M757.265,631.181a7.974,7.974,0,0,1-10.219-1.8l-13.822-16.712a8,8,0,0,1,1.547-11.635l59.372-41.988,71.636-94.715A22.981,22.981,0,0,1,884.833,453.5a29.976,29.976,0,0,1,5.561.485h0a22.9,22.9,0,0,1,16.787,12.956,23.885,23.885,0,0,1-.763,21.832l-53.043,85.9-.116.188Z" transform="translate(267.45 302.782)" fill="#ff8e28"/>
      <path id="Path_1720" data-name="Path 1720" d="M851.533,452.039c-3.22-5.3-10.325-6.792-16.493-6.188s-12.167,2.772-18.365,2.724c-17.21-.133-30.494-21.109-23.259-36.724,5.934-12.806,20.754-18.43,34.161-22.843,28.109-9.254,60.4-18.145,85.906-3.141a53.376,53.376,0,0,1,25.692,47.561c-.574,11.808-5.1,23.938-1.271,35.124,4.412,12.905,18.4,19.829,31.624,23.179,23.176,5.871,47.612,4.926,70.933,10.192s47.219,19.249,53.505,42.316c4.129,15.151-.18,31.462-7.315,45.452A117.718,117.718,0,0,1,922.427,637.86c-28.194-16.463-48.548-44.286-60.684-74.6A249.781,249.781,0,0,1,847.306,508.4c-2.718-17.577-.412-35.34,4.511-52.43A4.819,4.819,0,0,0,851.533,452.039Z" transform="translate(320.973 235.289)"/>
      <path id="Path_1721" data-name="Path 1721" d="M1076.831,769.284H717.378a1.892,1.892,0,1,1,0-3.784h359.452a1.892,1.892,0,1,1,0,3.784Z" transform="translate(253.269 581.044)" fill="#918b87"/>
      <path id="Path_1723" data-name="Path 1723" d="M314.146,632.306c-7.777,26.98-30.486,45.866-54.173,61.91q-4.961,3.361-9.925,6.567c-.022.01-.046.031-.068.041-.159.1-.319.2-.467.308l-2.044,1.316.372.167s.365.194-.034.031c-.119-.05-.244-.094-.362-.145-13.761-5.55-27.767-11.509-38.312-21.906-10.94-10.8-17.333-27.731-11.409-41.915a27.085,27.085,0,0,1,2.932-5.263c.481-.687,1-1.345,1.537-1.991a29.027,29.027,0,0,1,49.854,8.82c1.74-16.2-11.621-29.776-24.478-39.791s-27.48-20.91-29.967-37.024c-1.389-8.965,1.729-17.654,7.408-24.628.176-.212.351-.424.533-.63a42.362,42.362,0,0,1,27.227-14.607c19.725-2.05,38.884,8.391,53.213,22.105C309.044,567.738,322.987,601.63,314.146,632.306Z" transform="translate(298.541 539.339)" fill="#ff8e28"/>
      <path id="Path_1724" data-name="Path 1724" d="M275.252,591.835a72.009,72.009,0,0,1,8.627,19.028,62.533,62.533,0,0,1,2.161,18.468,80.116,80.116,0,0,1-10.493,36.46,115.3,115.3,0,0,1-17.394,23.244q-4.961,3.361-9.925,6.567c-.022.01-.046.031-.068.041-.159.1-.319.2-.467.308l-2.044,1.316s.737.362.338.2c-.119-.05-.244-.094-.362-.145a63.176,63.176,0,0,0-46.789-69.084c.48-.688,1-1.346,1.537-1.992a66.665,66.665,0,0,1,11,4.163A65.307,65.307,0,0,1,240.9,658.876a66.77,66.77,0,0,1,7.27,36.64c.565-.512,1.131-1.036,1.681-1.554,10.457-9.749,19.745-20.94,26.03-33.854a74.531,74.531,0,0,0,7.8-35.264c-.513-13.321-5.82-25.659-13.5-36.4a156.007,156.007,0,0,0-29.572-30.478,177.274,177.274,0,0,0-36.779-22.707,1.275,1.275,0,0,1-.641-1.636,1.084,1.084,0,0,1,.533-.63.943.943,0,0,1,.82.035c1.622.747,3.233,1.5,4.832,2.294a179.289,179.289,0,0,1,37.042,24.434C257.317,569.052,267.582,579.672,275.252,591.835Z" transform="translate(300.36 544.52)" fill="#fff"/>
      <path id="Path_1725" data-name="Path 1725" d="M201.935,638.25h85.226a6.593,6.593,0,0,1,6.542,7.411l-10.859,86.874a6.6,6.6,0,0,1-6.542,5.775H212.795a6.6,6.6,0,0,1-6.542-5.775l-10.859-86.874a6.593,6.593,0,0,1,6.542-7.411Z" transform="translate(298.477 601.337)" fill="#f8eee7"/>
      <ellipse id="Ellipse_339" data-name="Ellipse 339" cx="3" cy="6" rx="3" ry="6" transform="translate(300 655)"/>
      <ellipse id="Ellipse_340" data-name="Ellipse 340" cx="3" cy="6" rx="3" ry="6" transform="translate(1121 686)"/>
      <rect id="Rectangle_320" data-name="Rectangle 320" width="1500" height="1500" fill="#fff" opacity="0"/>
    </g>
  </g>
</svg>
